<svg xmlns="http://www.w3.org/2000/svg" viewBox="0 0 420 118" role="img" aria-labelledby="title desc">
  <title id="title">Logo ENIB</title>
  <desc id="desc">Logo institutionnel ENIB stylisé en bleu et cyan.</desc>
  <rect width="420" height="118" fill="none"/>
  <g fill="#06305f">
    <path d="M13 45h78v27H5z"/>
    <path d="M5 88h113v27H0z"/>
    <path d="M135 45h64l24 27h-88z"/>
    <path d="M135 88h36v27h-36z"/>
    <path d="M188 88h63v27h-39z"/>
    <path d="M226 45h25v27h-25z"/>
    <path d="M271 45h25v70h-25z"/>
    <path d="M319 1h43c25 0 46 16 46 43 0 14-6 24-17 31 13 6 21 17 21 35v7h-93V90h50c8 0 13-5 13-12s-5-12-13-12h-50V39h44c8 0 13-5 13-12s-5-12-13-12h-44z"/>
  </g>
  <g fill="#0aa4b8">
    <path d="M38 1h80v27H29z"/>
    <path d="M135 1h29l27 27h-56z"/>
    <path d="M226 1h25v27h-25z"/>
    <path d="M271 1l25 13-25 14z"/>
    <path d="M312 1h14v114h-14z"/>
    <path d="M415 1h5v114h-5z"/>
  </g>
</svg>
